<svg xmlns="http://www.w3.org/2000/svg" viewBox="0 0 1280 320" width="1280" height="320" role="img" aria-label="Velero Cloud Tests"><title>Velero Cloud Tests</title><defs><clipPath id="c"><rect width="1280" height="320" rx="18"/></clipPath></defs><g clip-path="url(#c)"><rect width="1280" height="320" fill="#101820"/><path fill="#f4efe4"  d="m78 262v-180.5h55.4q13.8 0 20.9 6.3 7.1 6.3 9.5 17.7 2.4 11.3 2.4 26.6 0 14.7-3.8 23.6-3.7 8.8-14.1 12.2 8.6 1.7 12 8.4 3.4 6.7 3.4 17.4v68.3h-35.6v-70.6q0-7.9-3.2-9.8-3.2-1.9-10.4-1.9v82.3zm36.7-113.6h8.7q7.5 0 7.5-16.3 0-10.6-1.6-13.9-1.7-3.2-6.2-3.2h-8.4zm83.1 113.6v-145.8h-21.5v-34.7h79v34.7h-21.4v145.8zm114.8 1.6q-21.6 0-33.1-13-11.4-13.1-11.4-37.8v-85.7q0-23.2 11.3-35.2 11.4-12 33.2-12 21.8 0 33.2 12 11.3 12 11.3 35.2v85.7q0 24.7-11.4 37.8-11.5 13-33.1 13zm.3-33.2q8.2 0 8.2-15.9v-88.1q0-13.3-8-13.3-9 0-9 13.7v87.9q0 8.4 2 12.1 2.1 3.6 6.8 3.6z"/><path fill="none" stroke="#2ec4b6" stroke-width="4" d="m401.7 262v-180.5h55.3q13.9 0 21 6.3 7 6.3 9.4 17.7 2.4 11.3 2.4 26.6 0 14.7-3.7 23.6-3.7 8.8-14.1 12.2 8.5 1.7 11.9 8.4 3.5 6.7 3.5 17.4v68.3h-35.6v-70.6q0-7.9-3.2-9.8-3.3-1.9-10.4-1.9v82.3zm36.7-113.6h8.7q7.5 0 7.5-16.3 0-10.6-1.7-13.9-1.6-3.2-6.1-3.2h-8.4zm67.5 113.6v-180.5h47.7q15 0 23.8 6.7 8.7 6.7 12.5 19 3.8 12.3 3.8 29.3 0 16.4-3.2 28.5-3.1 12.2-11.3 18.9-8.1 6.6-23.1 6.6h-14.7v71.5zm35.5-103.9h2.1q10 0 12.3-5.6 2.2-5.7 2.2-16.6 0-10.3-2.2-15.9-2.2-5.6-10.4-5.6h-4zm111 105.5q-21.7 0-33.1-13-11.4-13.1-11.4-37.8v-85.7q0-23.2 11.3-35.2 11.3-12 33.2-12 21.8 0 33.1 12 11.4 12 11.4 35.2v85.7q0 24.7-11.5 37.8-11.4 13-33 13zm.3-33.2q8.2 0 8.2-15.9v-88.1q0-13.3-8-13.3-9 0-9 13.7v87.9q0 8.4 2 12.1 2.1 3.6 6.8 3.6z"/><rect x="753.4259765625001" y="84" width="6" height="176" fill="#e63946"/><path fill="#f4efe4"  d="m799.1 134-12.5-36.4h9.7l5 15.9q1.2 4 2.3 8.3 1.1 4.4 2.3 9.2h-1.9q1.1-4.9 2.1-9.2 1.1-4.3 2.2-8.3l4.9-15.9h9.6l-12.2 36.4zm37.1.5q-4.3 0-7.4-1.7-3.1-1.7-4.7-4.8-1.7-3.2-1.7-7.5 0-4.3 1.7-7.4 1.6-3.2 4.6-5 3.1-1.7 7.2-1.7 2.8 0 5.3.9 2.4.9 4.1 2.6 1.8 1.8 2.8 4.4 .9 2.6.9 6v2.1h-23.6v-4.9h19.6l-4 1.1q0-1.9-.6-3.2-.5-1.4-1.7-2.1-1.1-.8-2.8-.8-1.6 0-2.8.8-1.1.7-1.7 2.1-.6 1.3-.6 3.1v3.5q0 2.1.7 3.5 .7 1.4 1.9 2.1 1.3.7 2.9.7 1.2 0 2.1-.3 1-.3 1.6-.9 .7-.7 1-1.6l7.6 1.3q-.6 2.3-2.3 4.1-1.7 1.7-4.3 2.7-2.5.9-5.8.9zm25.8-36.9v36.4h-8.5v-36.4zm18.4 36.9q-4.3 0-7.4-1.7-3.1-1.7-4.7-4.8-1.7-3.2-1.7-7.5 0-4.3 1.7-7.4 1.6-3.2 4.6-5 3.1-1.7 7.2-1.7 2.8 0 5.2.9 2.4.9 4.2 2.6 1.8 1.8 2.8 4.4 .9 2.6.9 6v2.1h-23.6v-4.9h19.6l-4 1.1q0-1.9-.6-3.2-.6-1.4-1.7-2.1-1.1-.8-2.8-.8-1.6 0-2.8.8-1.1.7-1.7 2.1-.6 1.3-.6 3.1v3.5q0 2.1.7 3.5 .7 1.4 1.9 2.1 1.3.7 2.9.7 1.2 0 2.1-.3 .9-.3 1.6-.9 .7-.7 1-1.6l7.6 1.3q-.7 2.3-2.3 4.1-1.7 1.7-4.3 2.7-2.5.9-5.8.9zm17.3-.5v-27.3h8.2v5h.3q.8-2.7 2.5-4 1.7-1.3 3.9-1.3 .6 0 1.3 0 .6.1 1.1.3v7.4q-.6-.2-1.6-.4-1-.1-1.7-.1-1.6 0-2.8.7-1.3.7-2 1.9-.7 1.3-.7 2.9v14.9zm32.3.5q-4.3 0-7.4-1.8-3.1-1.7-4.7-4.9-1.7-3.2-1.7-7.4 0-4.2 1.7-7.3 1.6-3.2 4.7-5 3.1-1.7 7.4-1.7 4.2 0 7.3 1.7 3.1 1.8 4.7 5 1.7 3.1 1.7 7.3 0 4.2-1.7 7.4-1.6 3.2-4.7 4.9-3.1 1.8-7.3 1.8zm0-6.5q1.6 0 2.7-1 1.1-.9 1.7-2.6 .6-1.7.6-4 0-2.3-.6-4-.6-1.7-1.7-2.6-1.1-.9-2.7-.9-1.7 0-2.8.9-1.1.9-1.7 2.6-.6 1.7-.6 4 0 2.3.6 4 .6 1.7 1.7 2.6 1.1 1 2.8 1z"/><path fill="#f4efe4"  d="m804.6 190.5q-4.9 0-8.8-2.2-3.9-2.2-6.1-6.3-2.3-4.2-2.3-10.2 0-6 2.3-10.2 2.3-4.1 6.2-6.3 3.9-2.2 8.7-2.2 3.3 0 6 .9 2.8.9 4.9 2.6 2.2 1.7 3.5 4.2 1.3 2.5 1.7 5.7h-8.7q-.2-1.4-.8-2.4-.6-1.1-1.5-1.9-.9-.7-2.2-1.1-1.2-.4-2.6-.4-2.7 0-4.6 1.3-2 1.3-3 3.8-1.1 2.5-1.1 6 0 3.7 1.1 6.2 1.1 2.4 3 3.7 1.9 1.2 4.5 1.2 1.5 0 2.7-.4 1.2-.4 2.1-1.1 1-.8 1.6-1.8 .6-1.1.8-2.4h8.7q-.2 2.4-1.4 4.8-1.1 2.3-3.2 4.3-2 1.9-4.9 3-2.9 1.2-6.6 1.2zm29.3-36.9v36.4h-8.5v-36.4zm18.4 36.9q-4.3 0-7.4-1.8-3.1-1.7-4.7-4.9-1.7-3.2-1.7-7.4 0-4.2 1.7-7.3 1.6-3.2 4.7-5 3.1-1.7 7.4-1.7 4.2 0 7.3 1.7 3.1 1.8 4.7 5 1.7 3.1 1.7 7.3 0 4.2-1.7 7.4-1.6 3.2-4.7 4.9-3.1 1.8-7.3 1.8zm0-6.5q1.6 0 2.7-1 1.1-.9 1.7-2.6 .6-1.7.6-4 0-2.3-.6-4-.6-1.7-1.7-2.6-1.1-.9-2.7-.9-1.7 0-2.8.9-1.1.9-1.7 2.6-.6 1.7-.6 4 0 2.3.6 4 .6 1.7 1.7 2.6 1.1 1 2.8 1zm27.7 6.3q-2.9 0-5-1.2-2.1-1.3-3.3-3.6-1.2-2.3-1.2-5.4v-17.4h8.6v15.7q0 2.3 1.1 3.6 1.2 1.3 3.3 1.3 1.4 0 2.4-.6 1.1-.6 1.7-1.7 .6-1.1.6-2.7v-15.6h8.5v27.3h-8l-.2-6.9h.4q-1 3.3-3.2 5.3-2.1 1.9-5.7 1.9zm32.2.1q-3 0-5.5-1.6-2.5-1.6-4-4.7-1.5-3.1-1.5-7.7 0-4.8 1.6-7.9 1.5-3.1 4-4.6 2.5-1.5 5.3-1.5 2.2 0 3.7.7 1.6.7 2.6 1.9 .9 1.2 1.4 2.4h.2v-13.8h8.5v36.4h-8.4v-4.4h-.3q-.5 1.2-1.5 2.3-1 1.1-2.5 1.8-1.5.7-3.6.7zm2.9-6.7q1.6 0 2.8-.9 1.1-.9 1.7-2.5 .6-1.7.6-3.9 0-2.3-.6-3.9-.6-1.7-1.7-2.6-1.2-.9-2.8-.9-1.7 0-2.8.9-1.1 1-1.7 2.6-.6 1.7-.6 3.9 0 2.2.6 3.8 .6 1.7 1.7 2.6 1.2.9 2.8.9zm28.8-23v-7.1h30.6v7.1h-11v29.3h-8.6v-29.3zm43.9 29.8q-4.3 0-7.4-1.7-3.1-1.7-4.7-4.8-1.7-3.2-1.7-7.5 0-4.3 1.7-7.4 1.6-3.2 4.6-5 3.1-1.7 7.2-1.7 2.8 0 5.2.9 2.4.9 4.2 2.6 1.8 1.8 2.8 4.4 .9 2.6.9 6v2.1h-23.6v-4.9h19.6l-4 1.1q0-1.9-.6-3.2-.6-1.4-1.7-2.1-1.1-.8-2.8-.8-1.6 0-2.8.8-1.1.7-1.7 2.1-.6 1.3-.6 3.1v3.5q0 2.1.7 3.5 .7 1.4 1.9 2.1 1.3.7 2.9.7 1.2 0 2.1-.3 .9-.3 1.6-.9 .7-.7 1-1.6l7.6 1.3q-.7 2.3-2.3 4.1-1.7 1.7-4.3 2.7-2.5.9-5.8.9zm28.8 0q-3.5 0-6.2-1-2.7-1-4.4-2.8-1.7-1.9-2.1-4.5l7.9-1.2q.5 1.7 1.7 2.6 1.2.9 3.4.9 1.8 0 2.8-.6 1-.6 1-1.7 0-.9-.8-1.5-.8-.5-2.5-.9l-4.8-.9q-4-.8-6-2.8-2-1.9-2-5.1 0-2.7 1.4-4.6 1.5-2 4.2-3 2.7-1 6.4-1 3.4 0 5.9.9 2.5.9 4.1 2.6 1.5 1.7 2 4l-7.5 1.2q-.4-1.3-1.5-2.1-1.2-.8-2.9-.8-1.5 0-2.6.6-1.1.7-1.1 1.7 0 .8.7 1.5 .7.6 2.4.9l5.2 1q4.1.8 6.1 2.6 2 1.8 2 4.8 0 2.8-1.7 4.9-1.6 2-4.5 3.2-2.9 1.1-6.6 1.1zm31.9-27.8v6.3h-17.1v-6.3zm-13.5-6.5h8.6v25.4q0 1.1.5 1.7 .5.5 1.6.5 .5 0 1.3-.1 .8-.1 1.1-.2l1.1 6.2q-1.4.4-2.8.5-1.3.2-2.5.2-4.4 0-6.6-2-2.3-2.1-2.3-6zm29 34.3q-3.5 0-6.2-1-2.7-1-4.3-2.8-1.7-1.9-2.2-4.5l7.9-1.2q.5 1.7 1.7 2.6 1.3.9 3.4.9 1.8 0 2.8-.6 1.1-.6 1.1-1.7 0-.9-.9-1.5-.8-.5-2.5-.9l-4.7-.9q-4.1-.8-6.1-2.8-2-1.9-2-5.1 0-2.7 1.5-4.6 1.4-2 4.1-3 2.7-1 6.4-1 3.4 0 5.9.9 2.6.9 4.1 2.6 1.6 1.7 2 4l-7.5 1.2q-.4-1.3-1.5-2.1-1.1-.8-2.9-.8-1.5 0-2.6.6-1 .7-1 1.7 0 .8.6 1.5 .7.6 2.4.9l5.3 1q4 .8 6 2.6 2 1.8 2 4.8 0 2.8-1.6 4.9-1.7 2-4.6 3.2-2.9 1.1-6.6 1.1z"/><path fill="#8da9c4"  d="m793.4 228h-3.9v-2h3.7q1.9 0 3.2-.7 1.2-.7 1.8-2.1 .7-1.3.7-3.2 0-1.9-.7-3.3-.6-1.3-1.8-2-1.2-.7-3-.7h-4v-2h4.2q2.3 0 4 1 1.7.9 2.6 2.7 .8 1.8.8 4.3 0 2.5-.9 4.3-.9 1.8-2.6 2.7-1.7 1-4.1 1zm-2.9-16v16h-2.2v-16zm13.4 16v-12h2.2v12zm1.1-13.9q-.5 0-1-.4-.4-.4-.4-.9 0-.6.4-1 .5-.4 1-.4 .6 0 1 .4 .5.4.5 1 0 .5-.5.9-.4.4-1 .4zm8.6 14.2q-1.3 0-2.3-.4-1-.4-1.6-1.1-.6-.7-.9-1.8l2.1-.4q.2.9.9 1.4 .7.4 1.8.4 1.2 0 1.9-.5 .7-.5.7-1.2 0-.6-.4-1-.5-.4-1.3-.6l-2-.4q-1.7-.4-2.5-1.2-.8-.8-.8-2.1 0-1.1.6-1.9 .6-.8 1.6-1.2 1-.5 2.3-.5 1.3 0 2.2.4 .9.4 1.5 1 .5.7.8 1.6l-2 .4q-.2-.6-.8-1.1-.5-.5-1.6-.5-1.1 0-1.7.5-.7.4-.7 1.1 0 .7.4 1.1 .5.4 1.5.6l1.9.4q1.6.4 2.4 1.2 .8.8.8 2.1 0 1-.6 1.9-.6.8-1.7 1.3-1.1.5-2.5.5zm10.9 0q-1.2 0-2.1-.5-.9-.4-1.5-1.2-.5-.8-.5-2 0-1 .4-1.7 .4-.6 1.1-1 .6-.4 1.5-.6 .8-.2 1.6-.3 1.1-.1 1.8-.2 .7-.1 1-.2 .3-.2.3-.7v0q0-.7-.3-1.2-.2-.5-.8-.8-.5-.2-1.3-.2-.8 0-1.4.2-.6.3-1 .6-.3.4-.5.9l-2.1-.6q.5-1.1 1.3-1.8 .7-.6 1.7-.9 1-.3 1.9-.3 .7 0 1.5.2 .8.2 1.5.6 .7.4 1.2 1.3 .4.8.4 2.2v7.9h-2v-1.6h-.2q-.2.4-.6.8-.5.5-1.2.8-.7.3-1.7.3zm.4-1.8q1 0 1.7-.4 .8-.4 1.1-1.1 .4-.6.4-1.3v-1.6q-.1.1-.5.2-.4.1-.9.2-.4.1-.9.1-.5.1-.7.1-.7.1-1.3.3-.6.2-.9.6-.4.4-.4 1.1 0 .6.3 1 .3.4.9.6 .5.2 1.2.2zm12.8 1.8q-1.2 0-2.2-.4-1-.4-1.7-1.1-.6-.7-.8-1.8l2-.4q.3.9 1 1.4 .7.4 1.7.4 1.2 0 1.9-.5 .7-.5.7-1.2 0-.6-.4-1-.4-.4-1.3-.6l-2-.4q-1.6-.4-2.4-1.2-.8-.8-.8-2.1 0-1.1.5-1.9 .6-.8 1.7-1.2 1-.5 2.3-.5 1.3 0 2.2.4 .9.4 1.4 1 .6.7.8 1.6l-1.9.4q-.2-.6-.8-1.1-.6-.5-1.7-.5-1 0-1.7.5-.7.4-.7 1.1 0 .7.5 1.1 .4.4 1.5.6l1.8.4q1.7.4 2.5 1.2 .8.8.8 2.1 0 1-.6 1.9-.7.8-1.7 1.3-1.1.5-2.6.5zm12.5-12.3v1.8h-6.4v-1.8zm-4.6-2.9h2.2v11.7q0 .8.3 1.1 .3.4 1 .4 .2 0 .5-.1 .3 0 .5 0l.4 1.7q-.3.1-.7.2-.4.1-.8.1-1.6 0-2.5-.9-.9-.8-.9-2.3zm11.9 15.2q-1.8 0-3-.8-1.3-.8-2-2.2-.7-1.4-.7-3.2 0-1.9.7-3.3 .7-1.4 1.9-2.2 1.2-.8 2.9-.8 1 0 1.9.4 1 .3 1.7 1 .8.7 1.2 1.9 .5 1.1.5 2.8v.8h-9.5v-1.7h8.3l-1 .6q0-1.2-.3-2-.4-.9-1.1-1.4-.7-.5-1.7-.5-1.1 0-1.8.5-.7.5-1.1 1.3-.4.8-.4 1.8v1.1q0 1.3.4 2.2 .5.9 1.3 1.4 .8.4 1.8.4 .7 0 1.3-.2 .5-.2.9-.6 .4-.4.6-1l2.1.6q-.3.9-1 1.6-.6.7-1.6 1.1-1 .4-2.3.4zm7.8-.3v-12h2v1.9h.2q.3-1 1.1-1.5 .9-.6 1.9-.6 .3 0 .6 0 .2 0 .4.1v2.1q-.1-.1-.4-.1-.4-.1-.8-.1-.8 0-1.5.4-.6.4-1 1-.4.6-.4 1.4v7.4zm14.4 0v-12h2.1v1.9h.1q.3-1 1.2-1.5 .8-.6 1.9-.6 .2 0 .5 0 .3 0 .5.1v2.1q-.2-.1-.5-.1-.4-.1-.7-.1-.9 0-1.6.4-.6.4-1 1-.4.6-.4 1.4v7.4zm13.1.3q-1.8 0-3-.8-1.3-.8-2-2.2-.7-1.4-.7-3.2 0-1.9.7-3.3 .7-1.4 1.9-2.2 1.2-.8 2.9-.8 1 0 1.9.4 1 .3 1.7 1 .8.7 1.2 1.9 .5 1.1.5 2.8v.8h-9.5v-1.7h8.3l-1 .6q0-1.2-.3-2-.4-.9-1.1-1.4-.7-.5-1.7-.5-1.1 0-1.8.5-.7.5-1.1 1.3-.4.8-.4 1.8v1.1q0 1.3.4 2.2 .5.9 1.3 1.4 .8.4 1.8.4 .7 0 1.3-.2 .5-.2.9-.6 .4-.4.6-1l2.1.6q-.3.9-1 1.6-.6.7-1.6 1.1-1 .4-2.3.4zm12.7 0q-1.6 0-2.9-.8-1.2-.8-1.9-2.2-.7-1.4-.7-3.2 0-1.9.7-3.3 .7-1.4 1.9-2.2 1.3-.8 2.9-.8 .9 0 1.7.3 .8.2 1.5.6 .6.5 1.1 1.1 .4.7.7 1.5l-2.1.5q-.1-.5-.4-.8-.2-.4-.6-.7-.4-.3-.8-.4-.5-.2-1.1-.2-1.1 0-1.9.6-.7.6-1.1 1.6-.3 1-.3 2.2 0 1.1.3 2.1 .4 1 1.1 1.6 .8.6 1.9.6 .6 0 1.1-.2 .5-.1.9-.4 .3-.3.6-.7 .2-.4.4-.9l2 .5q-.2.9-.7 1.5-.5.7-1.1 1.1-.7.5-1.5.7-.8.3-1.7.3zm12.7 0q-1.7 0-3-.8-1.2-.8-1.9-2.2-.7-1.4-.7-3.2 0-1.9.7-3.3 .7-1.4 1.9-2.2 1.3-.8 3-.8 1.6 0 2.9.8 1.2.8 1.9 2.2 .7 1.4.7 3.3 0 1.8-.7 3.2-.7 1.4-1.9 2.2-1.3.8-2.9.8zm0-1.9q1.1 0 1.9-.6 .7-.6 1.1-1.6 .3-1 .3-2.1 0-1.2-.3-2.2-.4-1-1.1-1.6-.8-.6-1.9-.6-1.2 0-1.9.6-.8.6-1.1 1.6-.4 1-.4 2.2 0 1.1.4 2.1 .3 1 1.1 1.6 .7.6 1.9.6zm11.3 1.6-4.6-12h2.3l2.5 7q.4 1.1.7 2.2 .3 1.1.6 2.2h-.7q.3-1.1.6-2.2 .2-1.1.6-2.2l2.5-7h2.3l-4.5 12zm13.7.3q-1.7 0-3-.8-1.3-.8-2-2.2-.7-1.4-.7-3.2 0-1.9.7-3.3 .7-1.4 1.9-2.2 1.2-.8 2.9-.8 1 0 1.9.4 1 .3 1.7 1 .8.7 1.2 1.9 .5 1.1.5 2.8v.8h-9.5v-1.7h8.4l-1 .6q0-1.2-.4-2-.4-.9-1.1-1.4-.7-.5-1.7-.5-1 0-1.8.5-.7.5-1.1 1.3-.4.8-.4 1.8v1.1q0 1.3.4 2.2 .5.9 1.3 1.4 .8.4 1.8.4 .7 0 1.3-.2 .5-.2.9-.6 .4-.4.7-1l2 .6q-.3.9-1 1.6-.6.7-1.6 1.1-1 .4-2.3.4zm7.8-.3v-12h2v1.9h.2q.3-1 1.1-1.5 .9-.6 1.9-.6 .3 0 .6 0 .3 0 .4.1v2.1q-.1-.1-.4-.1-.4-.1-.8-.1-.8 0-1.5.4-.6.4-1 1-.4.6-.4 1.4v7.4zm8.5 4.3 .6-1.8 .2.1q.6.1 1.1.1 .5-.1.9-.5 .3-.4.6-1.2l.3-.9-4.6-12.1h2.3l2.5 7q.4 1.1.7 2.2 .2 1.1.6 2.2h-.8q.4-1.1.6-2.2 .3-1.1.7-2.2l2.5-7h2.3l-5.2 13.7q-.4 1-.9 1.6-.5.7-1.2 1-.7.3-1.6.3-.6 0-1-.1-.4-.1-.6-.2zm11.5-.4 .9-6.2h2.4l-1.7 6.2zm17.6-15.9v1.8h-6.3v-1.8zm-4.5-2.9h2.1v11.7q0 .8.3 1.1 .3.4 1.1.4 .2 0 .4-.1 .3 0 .6 0l.4 1.7q-.4.1-.8.2-.4.1-.8.1-1.6 0-2.5-.9-.8-.8-.8-2.3zm6.9 14.9v-12h2.2v12zm1.1-13.9q-.6 0-1-.4-.4-.4-.4-.9 0-.6.4-1 .4-.4 1-.4 .6 0 1 .4 .4.4.4 1 0 .5-.4.9-.4.4-1 .4zm4.4 13.9v-12h2l.1 2.7h-.2q.3-1 .8-1.6 .5-.7 1.3-1 .7-.3 1.4-.3 1.4 0 2.2.8 .8.8 1 2.2h-.2q.2-1 .8-1.6 .5-.7 1.3-1.1 .9-.3 1.8-.3 1.1 0 1.9.4 .9.5 1.4 1.4 .5.9.5 2.3v8.1h-2.2v-8q0-1.2-.7-1.8-.7-.5-1.6-.5-.8 0-1.3.3-.6.4-.9.9-.3.6-.3 1.3v7.8h-2.1v-8.1q0-1-.7-1.6-.6-.6-1.6-.6-.7 0-1.3.3-.6.3-.9 1-.4.6-.4 1.5v7.5zm24.5.3q-1.8 0-3-.8-1.3-.8-2-2.2-.7-1.4-.7-3.2 0-1.9.7-3.3 .7-1.4 1.9-2.2 1.2-.8 2.9-.8 1 0 1.9.4 1 .3 1.7 1 .8.7 1.2 1.9 .5 1.1.5 2.8v.8h-9.5v-1.7h8.3l-1 .6q0-1.2-.3-2-.4-.9-1.1-1.4-.7-.5-1.7-.5-1.1 0-1.8.5-.7.5-1.1 1.3-.4.8-.4 1.8v1.1q0 1.3.4 2.2 .5.9 1.3 1.4 .8.4 1.8.4 .7 0 1.3-.2 .5-.2.9-.6 .4-.4.6-1l2.1.6q-.3.9-1 1.6-.6.7-1.6 1.1-1 .4-2.3.4zm12.2-.1q-1.4 0-2.6-.7-1.1-.8-1.8-2.2-.6-1.3-.6-3.3 0-1.9.6-3.3 .7-1.4 1.8-2.1 1.2-.8 2.6-.8 1.2 0 1.9.4 .7.4 1 .9 .4.5.6.8h.1v-5.9h2.2v16h-2.1v-1.9h-.2q-.2.4-.6.9-.4.5-1.1.9-.6.3-1.8.3zm.4-1.8q1.1 0 1.8-.6 .7-.5 1.1-1.5 .4-1 .4-2.3 0-1.3-.4-2.2-.4-1-1.1-1.5-.7-.6-1.8-.6-1.1 0-1.8.6-.7.5-1.1 1.5-.3 1-.3 2.2 0 1.2.3 2.2 .4 1 1.1 1.6 .8.6 1.8.6z"/><path fill="#8da9c4"  d="m793 256.3q-1.6 0-2.9-.8-1.2-.8-1.9-2.2-.7-1.4-.7-3.2 0-1.9.7-3.3 .7-1.4 1.9-2.2 1.3-.8 2.9-.8 1.7 0 3 .8 1.2.8 1.9 2.2 .7 1.4.7 3.3 0 1.8-.7 3.2-.7 1.4-1.9 2.2-1.3.8-3 .8zm0-1.9q1.2 0 1.9-.6 .8-.6 1.2-1.6 .3-1 .3-2.1 0-1.2-.3-2.2-.4-1-1.2-1.6-.7-.6-1.9-.6-1.1 0-1.8.6-.8.6-1.2 1.6-.3 1-.3 2.2 0 1.1.3 2.1 .4 1 1.2 1.6 .7.6 1.8.6zm10.5-5.6v7.2h-2.2v-12h2.1l0 2.9h-.3q.6-1.6 1.6-2.3 1-.8 2.4-.8 1.2 0 2.1.5 .9.6 1.4 1.6 .5 1 .5 2.5v7.6h-2.1v-7.4q0-1.3-.7-2.1-.7-.8-1.9-.8-.9 0-1.5.4-.7.4-1.1 1.1-.3.7-.3 1.6zm17 7.2v-12h2l.1 2.7h-.2q.2-1 .8-1.6 .5-.7 1.2-1 .7-.3 1.5-.3 1.3 0 2.1.8 .9.8 1.1 2.2h-.3q.3-1 .8-1.6 .6-.7 1.4-1.1 .8-.3 1.8-.3 1 0 1.9.4 .9.5 1.4 1.4 .5.9.5 2.3v8.1h-2.2v-8q0-1.2-.7-1.8-.7-.5-1.6-.5-.8 0-1.3.3-.6.4-.9.9-.3.6-.3 1.3v7.8h-2.1v-8.1q0-1-.7-1.6-.6-.6-1.6-.6-.7 0-1.3.3-.6.3-.9 1-.4.6-.4 1.5v7.5zm22.7.3q-1.1 0-2-.5-1-.4-1.5-1.2-.6-.8-.6-2 0-1 .4-1.7 .4-.6 1.1-1 .7-.4 1.5-.6 .8-.2 1.7-.3 1.1-.1 1.7-.2 .7-.1 1-.2 .3-.2.3-.7v0q0-.7-.2-1.2-.3-.5-.8-.8-.6-.2-1.4-.2-.8 0-1.4.2-.6.3-.9.6-.4.4-.6.9l-2-.6q.4-1.1 1.2-1.8 .8-.6 1.7-.9 1-.3 2-.3 .7 0 1.4.2 .8.2 1.6.6 .7.4 1.1 1.3 .5.8.5 2.2v7.9h-2.1v-1.6h-.1q-.2.4-.7.8-.5.5-1.2.8-.7.3-1.7.3zm.4-1.8q1.1 0 1.8-.4 .7-.4 1.1-1.1 .3-.6.3-1.3v-1.6q-.1.1-.5.2-.3.1-.8.2-.5.1-1 .1-.4.1-.7.1-.7.1-1.3.3-.5.2-.9.6-.3.4-.3 1.1 0 .6.3 1 .3.4.8.6 .6.2 1.2.2zm10.8-5.7v7.2h-2.1v-12h2l0 2.9h-.2q.5-1.6 1.5-2.3 1-.8 2.4-.8 1.3 0 2.2.5 .9.6 1.4 1.6 .5 1 .5 2.5v7.6h-2.1v-7.4q0-1.3-.7-2.1-.7-.8-2-.8-.8 0-1.5.4-.6.4-1 1.1-.4.7-.4 1.6zm14.4 7.5q-1.2 0-2.1-.5-.9-.4-1.5-1.2-.5-.8-.5-2 0-1 .4-1.7 .4-.6 1.1-1 .6-.4 1.5-.6 .8-.2 1.6-.3 1.1-.1 1.8-.2 .6-.1 1-.2 .3-.2.3-.7v0q0-.7-.3-1.2-.3-.5-.8-.8-.5-.2-1.3-.2-.8 0-1.4.2-.6.3-1 .6-.4.4-.5.9l-2.1-.6q.5-1.1 1.2-1.8 .8-.6 1.8-.9 .9-.3 1.9-.3 .7 0 1.5.2 .8.2 1.5.6 .7.4 1.2 1.3 .4.8.4 2.2v7.9h-2.1v-1.6h-.1q-.2.4-.7.8-.4.5-1.1.8-.7.3-1.7.3zm.4-1.8q1 0 1.7-.4 .7-.4 1.1-1.1 .4-.6.4-1.3v-1.6q-.1.1-.5.2-.4.1-.9.2-.5.1-.9.1-.5.1-.8.1-.6.1-1.2.3-.6.2-.9.6-.4.4-.4 1.1 0 .6.3 1 .3.4.9.6 .5.2 1.2.2zm13.6 6.2q-1.4 0-2.4-.3-1-.3-1.7-.9-.6-.6-1-1.3l1.8-1q.2.4.6.8 .4.4 1 .7 .6.3 1.7.3 1.4 0 2.2-.7 .9-.7.9-2.1v-2.4h-.2q-.2.4-.5.8-.4.5-1.1.9-.7.3-1.8.3-1.4 0-2.6-.7-1.1-.6-1.8-1.9-.7-1.4-.7-3.3 0-1.8.7-3.2 .7-1.4 1.8-2.1 1.2-.8 2.6-.8 1.2 0 1.8.4 .7.4 1.1.9 .4.5.6.8h.2v-1.9h2.1v12.2q0 1.6-.7 2.6-.7 1-1.9 1.5-1.2.4-2.7.4zm-.1-6.7q1.1 0 1.8-.5 .7-.5 1.1-1.4 .4-.9.4-2.2 0-1.2-.4-2.2-.4-.9-1.1-1.5-.7-.5-1.8-.5-1.1 0-1.8.6-.7.5-1.1 1.5-.4.9-.4 2.1 0 1.2.4 2.1 .4.9 1.1 1.5 .7.5 1.8.5zm13.8 2.3q-1.8 0-3.1-.8-1.2-.8-1.9-2.2-.7-1.4-.7-3.2 0-1.9.7-3.3 .6-1.4 1.9-2.2 1.2-.8 2.9-.8 1 0 1.9.4 .9.3 1.7 1 .8.7 1.2 1.9 .5 1.1.5 2.8v.8h-9.5v-1.7h8.3l-1 .6q0-1.2-.3-2-.4-.9-1.1-1.4-.7-.5-1.7-.5-1.1 0-1.8.5-.8.5-1.1 1.3-.4.8-.4 1.8v1.1q0 1.3.4 2.2 .4.9 1.2 1.4 .8.4 1.9.4 .7 0 1.2-.2 .6-.2 1-.6 .4-.4.6-1l2.1.6q-.3.9-1 1.6-.7.7-1.7 1.1-1 .4-2.2.4zm12.2-.1q-1.5 0-2.6-.7-1.1-.8-1.8-2.2-.6-1.3-.6-3.3 0-1.9.6-3.3 .7-1.4 1.8-2.1 1.2-.8 2.6-.8 1.2 0 1.9.4 .6.4 1 .9 .4.5.6.8h.1v-5.9h2.2v16h-2.1v-1.9h-.2q-.2.4-.6.9-.4.5-1.1.9-.7.3-1.8.3zm.4-1.8q1.1 0 1.8-.6 .7-.5 1.1-1.5 .4-1 .4-2.3 0-1.3-.4-2.2-.4-1-1.1-1.5-.7-.6-1.8-.6-1.1 0-1.8.6-.7.5-1.1 1.5-.3 1-.3 2.2 0 1.2.3 2.2 .4 1 1.1 1.6 .8.6 1.8.6zm16.5-2.8v-2.3q.5-.8 1-1.5 .6-.7 1.1-1.4 .6-.6 1.2-1.3l4.7-5.1h2.9l-6.9 7.4-.1 0zm-1.6 4.4v-16h2.3v5.3l-.1 3.5 .1 1.1v6.1zm9.8 0-5.6-8 1.4-1.7 6.9 9.7zm8.3.2q-1.2 0-2.1-.6-1-.5-1.5-1.5-.5-1-.5-2.5v-7.6h2.2v7.4q0 1.3.7 2.1 .7.8 1.9.8 .8 0 1.5-.4 .6-.4 1-1.1 .4-.7.4-1.7v-7.1h2.1v12h-2l0-2.9h.2q-.5 1.6-1.5 2.3-1.1.8-2.4.8zm14.8 0q-1.1 0-1.8-.3-.7-.4-1.1-.9-.4-.5-.6-.9h-.2v1.9h-2.1v-16h2.2v5.9h.1q.2-.3.6-.8 .4-.5 1.1-.9 .7-.4 1.8-.4 1.5 0 2.6.8 1.1.7 1.8 2.1 .7 1.4.7 3.3 0 2-.7 3.3-.6 1.4-1.8 2.2-1.1.7-2.6.7zm-.4-1.8q1.1 0 1.8-.6 .7-.6 1.1-1.6 .4-1 .4-2.2 0-1.2-.4-2.2-.4-1-1.1-1.5-.7-.6-1.8-.6-1.1 0-1.8.6-.7.5-1.1 1.5-.3.9-.3 2.2 0 1.3.3 2.3 .4 1 1.1 1.5 .8.6 1.8.6zm13.3 1.9q-1.8 0-3-.8-1.3-.8-2-2.2-.7-1.4-.7-3.2 0-1.9.7-3.3 .7-1.4 1.9-2.2 1.2-.8 2.9-.8 1 0 1.9.4 1 .3 1.7 1 .8.7 1.2 1.9 .5 1.1.5 2.8v.8h-9.5v-1.7h8.3l-1 .6q0-1.2-.3-2-.4-.9-1.1-1.4-.7-.5-1.7-.5-1.1 0-1.8.5-.8.5-1.1 1.3-.4.8-.4 1.8v1.1q0 1.3.4 2.2 .5.9 1.2 1.4 .8.4 1.9.4 .7 0 1.2-.2 .6-.2 1-.6 .4-.4.6-1l2.1.6q-.3.9-1 1.6-.7.7-1.7 1.1-1 .4-2.2.4zm7.7-.3v-12h2.1v1.9h.1q.4-1 1.2-1.5 .9-.6 1.9-.6 .2 0 .5 0 .3 0 .5.1v2.1q-.1-.1-.4-.1-.4-.1-.8-.1-.8 0-1.5.4-.7.4-1 1-.4.6-.4 1.4v7.4zm10.9-7.2v7.2h-2.1v-12h2l0 2.9h-.2q.5-1.6 1.5-2.3 1-.8 2.4-.8 1.2 0 2.1.5 1 .6 1.5 1.6 .5 1 .5 2.5v7.6h-2.2v-7.4q0-1.3-.7-2.1-.7-.8-1.9-.8-.8 0-1.5.4-.6.4-1 1.1-.4.7-.4 1.6zm16.1 7.5q-1.8 0-3-.8-1.3-.8-2-2.2-.7-1.4-.7-3.2 0-1.9.7-3.3 .6-1.4 1.9-2.2 1.2-.8 2.9-.8 1 0 1.9.4 .9.3 1.7 1 .8.7 1.2 1.9 .5 1.1.5 2.8v.8h-9.5v-1.7h8.3l-1 .6q0-1.2-.3-2-.4-.9-1.1-1.4-.7-.5-1.7-.5-1.1 0-1.8.5-.8.5-1.1 1.3-.4.8-.4 1.8v1.1q0 1.3.4 2.2 .4.9 1.2 1.4 .8.4 1.9.4 .7 0 1.2-.2 .6-.2 1-.6 .4-.4.6-1l2.1.6q-.3.9-1 1.6-.7.7-1.7 1.1-1 .4-2.2.4zm12.7-12.3v1.8h-6.4v-1.8zm-4.6-2.9h2.1v11.7q0 .8.4 1.1 .3.4 1 .4 .2 0 .5-.1 .3 0 .5 0l.4 1.7q-.3.1-.7.2-.4.1-.8.1-1.6 0-2.5-.9-.9-.8-.9-2.3zm11.9 15.2q-1.8 0-3.1-.8-1.2-.8-1.9-2.2-.7-1.4-.7-3.2 0-1.9.7-3.3 .6-1.4 1.9-2.2 1.2-.8 2.9-.8 .9 0 1.9.4 .9.3 1.7 1 .8.7 1.2 1.9 .5 1.1.5 2.8v.8h-9.5v-1.7h8.3l-1 .6q0-1.2-.3-2-.4-.9-1.1-1.4-.7-.5-1.7-.5-1.1 0-1.8.5-.8.5-1.2 1.3-.3.8-.3 1.8v1.1q0 1.3.4 2.2 .4.9 1.2 1.4 .8.4 1.9.4 .7 0 1.2-.2 .6-.2 1-.6 .4-.4.6-1l2.1.6q-.3.9-1 1.6-.7.7-1.7 1.1-1 .4-2.2.4zm11.9 0q-1.2 0-2.2-.4-1-.4-1.7-1.1-.6-.7-.8-1.8l2-.4q.3.9 1 1.4 .7.4 1.7.4 1.2 0 1.9-.5 .7-.5.7-1.2 0-.6-.4-1-.4-.4-1.3-.6l-2-.4q-1.6-.4-2.4-1.2-.9-.8-.9-2.1 0-1.1.6-1.9 .6-.8 1.7-1.2 1-.5 2.3-.5 1.3 0 2.2.4 .9.4 1.4 1 .6.7.8 1.6l-1.9.4q-.2-.6-.8-1.1-.6-.5-1.7-.5-1 0-1.7.5-.7.4-.7 1.1 0 .7.5 1.1 .4.4 1.5.6l1.8.4q1.7.4 2.5 1.2 .8.8.8 2.1 0 1-.6 1.9-.7.8-1.7 1.3-1.1.5-2.6.5z"/></g></svg>
